<?xml version="1.0" encoding="utf-8"?>
<!-- Generator: Adobe Illustrator 16.0.3, SVG Export Plug-In . SVG Version: 6.00 Build 0)  -->
<!DOCTYPE svg PUBLIC "-//W3C//DTD SVG 1.1//EN" "http://www.w3.org/Graphics/SVG/1.1/DTD/svg11.dtd">
<svg version="1.1" id="Layer_1" xmlns="http://www.w3.org/2000/svg" xmlns:xlink="http://www.w3.org/1999/xlink" x="0px" y="0px"
	 width="151.173px" height="31.667px" viewBox="-57.332 -0.167 151.173 31.667"
	 enable-background="new -57.332 -0.167 151.173 31.667" xml:space="preserve">
<g id="Layer_2">
</g>
<path opacity="0.7" fill="#FFAE5E" enable-background="new    " d="M10.29,2.333H-8.191c-2.55,0-4.634,2.073-4.634,4.634v18.485
	c0,2.552,2.084,4.628,4.634,4.628H10.29c2.562,0,4.637-2.076,4.637-4.628V6.966C14.927,4.406,12.852,2.333,10.29,2.333z
	 M9.878,11.598c0.006,0.2,0.015,0.401,0.015,0.597c0,6.125-4.574,13.209-12.971,13.209c-2.577,0-4.973-0.772-6.989-2.089
	c0.359,0.048,0.729,0.058,1.093,0.058c2.132,0,4.104-0.738,5.664-1.987c-1.989-0.033-3.684-1.369-4.261-3.213
	c0.287,0.058,0.557,0.081,0.865,0.081c0.416,0,0.817-0.057,1.183-0.162c-2.074-0.432-3.644-2.301-3.644-4.555
	c0-0.014,0-0.028,0-0.049c0.614,0.353,1.32,0.548,2.067,0.589c-1.234-0.845-2.043-2.265-2.043-3.877c0-0.841,0.223-1.645,0.636-2.32
	c2.235,2.806,5.603,4.645,9.39,4.835c-0.091-0.34-0.121-0.691-0.121-1.051c0-2.559,2.042-4.637,4.557-4.637
	c1.312,0,2.49,0.553,3.329,1.452c1.048-0.191,2.013-0.598,2.891-1.119c-0.338,1.083-1.062,1.997-1.994,2.563
	c0.911-0.105,1.796-0.366,2.613-0.724C11.542,10.126,10.783,10.947,9.878,11.598z"/>
<path opacity="0.7" fill="#FFAE5E" enable-background="new    " d="M45.748,2.335H27.267c-2.55,0-4.634,2.075-4.634,4.622v18.5
	c0,2.543,2.083,4.619,4.634,4.619h18.481c2.563,0,4.637-2.076,4.637-4.619v-18.5C50.384,4.411,48.311,2.335,45.748,2.335z
	 M42.453,24.681c-0.817,0.379-1.547,0.656-2.224,0.812c-0.658,0.154-1.367,0.229-2.144,0.229c-0.875,0-1.385-0.114-2.058-0.335
	c-0.676-0.213-1.26-0.531-1.718-0.941c-0.487-0.406-0.816-0.85-0.987-1.308c-0.187-0.457-0.28-1.123-0.28-2.009v-6.707h-2.61v-2.712
	c0.756-0.247,1.626-0.591,2.159-1.058c0.55-0.454,0.976-0.996,1.304-1.639s0.545-1.45,0.668-2.436h2.727v4.423h4.421v3.424H37.29
	v4.902c0,1.106-0.023,1.754,0.101,2.073c0.114,0.312,0.409,0.634,0.722,0.82c0.434,0.259,0.909,0.376,1.45,0.376
	c0.977,0,1.937-0.307,2.894-0.935v3.021H42.453z"/>
<path opacity="0.7" fill="#FFAE5E" enable-background="new    " d="M-24.009,2.333h-20.813c-1.896,0-3.463,1.561-3.463,3.47v20.814
	c0,1.913,1.567,3.459,3.463,3.459h10.526v-9.948h-3.318v-4.325h3.318V13.63c0-3.351,2.48-5.965,5.639-5.965h3.056v4.887h-2.736
	c-0.723,0-0.939,0.411-0.939,0.986v2.267h3.676v4.324h-3.676v9.951h5.266c1.905,0,3.476-1.55,3.476-3.458V5.803
	C-20.532,3.893-22.105,2.333-24.009,2.333z"/>
<g opacity="0.7">
	<g>
		<path fill="#FFAE5E" d="M83.19,2.333H60.739c-1.472,0-2.648,1.181-2.648,2.632v22.474c0,1.455,1.177,2.639,2.648,2.639H83.19
			c1.463,0,2.653-1.184,2.653-2.639V4.965C85.843,3.514,84.653,2.333,83.19,2.333z M65.157,7.602c1.197,0,1.949,0.882,1.959,2.016
			c0,1.118-0.762,2.016-1.982,2.016h-0.015c-1.187,0-1.947-0.897-1.947-2.016C63.171,8.485,63.95,7.602,65.157,7.602z
			 M67.336,24.818h-3.961V12.884h3.961V24.818z M81.869,24.818h-3.92v-6.225c0-1.582-0.44-2.646-1.861-2.646
			c-1.081,0-1.713,0.723-2.003,1.41c-0.095,0.257-0.116,0.605-0.116,0.961v6.501h-4.045c0,0,0.051-10.898,0-11.983h4.045v1.634
			c0.532-0.801,1.453-1.913,3.516-1.913c2.574,0,4.385,1.996,4.385,5.592V24.818z M73.968,14.531v-0.063
			c-0.016,0.02-0.032,0.043-0.046,0.063H73.968z"/>
	</g>
</g>
</svg>
